<svg xmlns="http://www.w3.org/2000/svg" version="1.1" xmlns:xlink="http://www.w3.org/1999/xlink" xmlns:svgjs="http://svgjs.dev/svgjs" width="1500" height="784" viewBox="0 0 1500 784"><g transform="matrix(1,0,0,1,-0.9090909090909918,-0.33097710188968676)"><svg viewBox="0 0 396 207" data-background-color="#096a2e" preserveAspectRatio="xMidYMid meet" height="784" width="1500" xmlns="http://www.w3.org/2000/svg" xmlns:xlink="http://www.w3.org/1999/xlink"><g id="tight-bounds" transform="matrix(1,0,0,1,0.2400000000000091,0.08738808685097865)"><svg viewBox="0 0 395.52 206.82522382629804" height="206.82522382629804" width="395.52"><g><svg viewBox="0 0 395.52 206.82522382629804" height="206.82522382629804" width="395.52"><g transform="matrix(1,0,0,1,0,125.45256618494676)"><svg viewBox="0 0 395.52 81.37265764135127" height="81.37265764135127" width="395.52"><g id="textblocktransform"><svg viewBox="0 0 395.52 81.37265764135127" height="81.37265764135127" width="395.52" id="textblock"><g><svg viewBox="0 0 395.52 55.04817653890825" height="55.04817653890825" width="395.52"><g transform="matrix(1,0,0,1,0,0)"><svg width="395.52" viewBox="1.45 -35.45 258.28000000000003 35.95" height="55.04817653890825" data-palette-color="#ffffff"><path d="M3.8-12.2L3.8-12.2Q4.75-11.45 7.08-10.15 9.4-8.85 11.53-8.85 13.65-8.85 13.65-10.5L13.65-10.5Q13.65-11.25 13.05-11.83 12.45-12.4 10.85-13.15 9.25-13.9 8.45-14.33 7.65-14.75 6.33-15.73 5-16.7 4.3-17.75L4.3-17.75Q2.3-20.6 2.3-25 2.3-29.4 5.58-32.43 8.85-35.45 14.15-35.45L14.15-35.45Q17.75-35.45 20.8-34.68 23.85-33.9 23.95-32.65L23.95-32.65Q23.95-32.5 23.95-32.35L23.95-32.35Q23.95-30.6 22.85-27.93 21.75-25.25 21.3-24.95L21.3-24.95Q18.1-26.6 15.58-26.6 13.05-26.6 13.05-24.8L13.05-24.8Q13.05-23.7 14.9-22.85L14.9-22.85Q15.3-22.65 16.05-22.3 16.8-21.95 17.78-21.48 18.75-21 19.88-20.28 21-19.55 22.3-18.35L22.3-18.35Q24.95-15.85 24.95-11.75L24.95-11.75Q24.95-6.4 22-3 19.05 0.4 12.9 0.5L12.9 0.5Q9.9 0.5 7.48 0 5.05-0.5 3.25-1.95 1.45-3.4 1.45-5.45 1.45-7.5 2.2-9.53 2.95-11.55 3.8-12.2ZM51.45-16.3L51.45-0.25Q51.45 0.1 47.17 0.1 42.9 0.1 42.9-0.35L42.9-0.35 42.9-14.9Q42.9-17.4 41.25-17.4L41.25-17.4Q40.4-17.4 39-16.3L39-16.3 39-0.3Q39 0.2 34.72 0.2 30.45 0.2 30.45-0.35L30.45-0.35 30.45-16.7 29.2-16.7Q27.55-16.7 27.55-20.15L27.55-20.15Q27.55-21.7 28.15-23.3L28.15-23.3Q28.95-25.5 30.75-25.5 32.55-25.5 34.22-24.55 35.9-23.6 36.25-22.75L36.25-22.75Q39.35-25.5 43.12-25.5 46.9-25.5 49.2-23.15L49.2-23.15Q51.9-25.5 55.7-25.5L55.7-25.5Q63.95-25.5 63.95-15.45L63.95-15.45 63.95-0.25Q63.95 0.1 59.67 0.1 55.4 0.1 55.4-0.35L55.4-0.35 55.4-14.9Q55.4-17.4 53.75-17.4L53.75-17.4Q52.85-17.4 51.45-16.3L51.45-16.3ZM71.35-18.15L71.35-18.15Q69.95-20.65 69.95-22.23 69.95-23.8 70.8-24.25L70.8-24.25Q73.65-25.5 78.62-25.5 83.6-25.5 85.65-23.18 87.7-20.85 87.7-16.3L87.7-16.3 87.7-8.4 89.4-8.4Q90.25-8.4 90.72-7.4 91.2-6.4 91.2-4.65 91.2-2.9 90.32-1.2 89.45 0.5 87.95 0.5L87.95 0.5Q85.25 0.5 83.6-0.95L83.6-0.95Q82.85-1.55 82.45-2.4L82.45-2.4Q80.15 0.5 75.3 0.5L75.3 0.5Q71.65 0.5 69.15-2.1 66.65-4.7 66.65-8.25L66.65-8.25Q66.65-16.4 76.4-16.4L76.4-16.4 79.15-16.4 79.15-16.9Q79.15-18.2 78.72-18.57 78.3-18.95 76.75-18.95L76.75-18.95Q74.85-18.95 71.35-18.15ZM75.35-8.95L75.35-8.95Q75.35-7.85 75.95-7.28 76.55-6.7 77.47-6.7 78.4-6.7 79.15-7.45L79.15-7.45 79.15-11.3 77.75-11.3Q75.35-11.3 75.35-8.95ZM104.99-14L104.99-0.05Q104.99 0.3 100.44 0.3L100.44 0.3Q95.89 0.2 95.89-0.1L95.89-0.1 95.89-16.7 94.54-16.7Q93.74-16.7 93.27-17.68 92.79-18.65 92.79-20.1L92.79-20.1Q92.79-25.5 95.99-25.5L95.99-25.5Q98.24-25.5 99.74-24.13 101.24-22.75 101.24-21L101.24-21Q102.29-23.05 104.07-24.28 105.84-25.5 107.69-25.5L107.69-25.5Q110.59-25.5 111.19-24L111.19-24Q111.34-23.6 111.34-22.83 111.34-22.05 110.87-20.05 110.39-18.05 109.89-17.15 109.39-16.25 109.29-16.25 109.19-16.25 108.37-16.63 107.54-17 106.89-17L106.89-17Q104.99-17 104.99-14L104.99-14ZM125.34-18L125.34-0.3Q125.34 0.3 121.14 0.3L121.14 0.3Q116.14 0.1 116.14-0.35L116.14-0.35 116.14-18.05 113.59-18.05Q112.59-18.05 112.59-21.5L112.59-21.5Q112.59-22.4 112.77-23.7 112.94-25 113.49-25L113.49-25 116.14-25 116.14-29.4Q116.14-30.4 120.37-30.4 124.59-30.4 124.59-29.6L124.59-29.6 124.59-26.4 124.64-25 128.89-25Q129.74-25 129.74-21.5 129.74-18 128.89-18L128.89-18 125.34-18ZM176.89 0.05L176.89 0.05Q172.44 0.05 172.44-0.95L172.44-0.95 171.39-21 165.29-0.7Q165.09-0.1 161.89-0.1 158.69-0.1 158.59-0.65L158.59-0.65 152.29-21.2 151.59-1.25Q151.54-0.5 149.69-0.23 147.84 0.05 146.61 0.05 145.39 0.05 144.24-0.1L144.24-0.1Q141.84-0.45 141.89-1.35L141.89-1.35 143.04-33.85Q143.04-35.05 149.14-35.05L149.14-35.05Q150.94-35.05 153.54-34.77 156.14-34.5 156.44-33.7L156.44-33.7 162.04-17.95 166.94-33.75Q167.39-35.05 173.84-35.05L173.84-35.05Q175.69-35.05 178.26-34.77 180.84-34.5 180.84-33.8L180.84-33.8 182.29-1Q182.29-0.45 180.34-0.2 178.39 0.05 176.89 0.05ZM189.16-2.95Q186.03-6.4 186.03-12.5 186.03-18.6 189.16-22.05 192.28-25.5 197.58-25.5 202.88-25.5 205.98-22.05 209.08-18.6 209.08-12.5 209.08-6.4 205.98-2.95 202.88 0.5 197.58 0.5 192.28 0.5 189.16-2.95ZM197.61-17.15Q194.78-17.15 194.78-12.55 194.78-7.95 197.61-7.95 200.43-7.95 200.43-12.55 200.43-17.15 197.61-17.15ZM217.13-0.6L210.68-24.85Q210.53-25.25 215.36-25.25 220.18-25.25 220.18-25L220.18-25 223.78-8 226.48-24.75Q226.63-25.2 231.43-25.2L231.43-25.2Q236.28-25.2 236.13-24.8L236.13-24.8 229.08-0.35Q228.73 0.15 223.13 0.15 217.53 0.15 217.13-0.6L217.13-0.6ZM257.58-1.35L257.58-1.35Q254.43 0.5 249.48 0.5 244.53 0.5 241.13-2.88 237.73-6.25 237.73-12.23 237.73-18.2 241-21.85 244.28-25.5 249.28-25.5 254.28-25.5 257-22.95 259.73-20.4 259.73-16.75L259.73-16.75Q259.73-8.65 250.43-8.65L250.43-8.65 246.98-8.65Q246.98-7.15 247.8-6.58 248.63-6 250.23-6L250.23-6Q253.73-6 256.88-7.6L256.88-7.6Q256.93-7.65 257.33-6.9L257.33-6.9Q258.53-4.75 258.53-3.28 258.53-1.8 257.58-1.35ZM251.33-15.8L251.33-15.8Q251.33-17.9 249.28-17.9L249.28-17.9Q248.33-17.9 247.65-17.32 246.98-16.75 246.98-15.65L246.98-15.65 246.98-14.1 249.68-14.1Q251.33-14.1 251.33-15.8Z" opacity="1" transform="matrix(1,0,0,1,0,0)" fill="#ffffff" class="wordmark-text-0" data-fill-palette-color="primary" id="text-0"></path></svg></g></svg></g><g transform="matrix(1,0,0,1,75.54431999999998,68.04372986350755)"><svg viewBox="0 0 244.43136 13.328927777843708" height="13.328927777843708" width="244.43136"><g transform="matrix(1,0,0,1,0,0)"><svg width="244.43136" viewBox="4.85 -36.83 842.55 45.96" height="13.328927777843708" data-palette-color="#ffffff"><path d="M15.43-13.4L9.68-13.4 9.68 0 4.85 0 4.85-35.83 15.43-35.83Q18.82-35.83 21.34-35.04 23.85-34.25 25.5-32.8 27.15-31.35 27.96-29.3 28.78-27.25 28.78-24.73L28.78-24.73Q28.78-22.23 27.9-20.15 27.03-18.07 25.34-16.57 23.65-15.08 21.15-14.24 18.65-13.4 15.43-13.4L15.43-13.4ZM9.68-32L9.68-17.25 15.43-17.25Q17.5-17.25 19.09-17.8 20.68-18.35 21.75-19.34 22.83-20.33 23.38-21.7 23.93-23.08 23.93-24.73L23.93-24.73Q23.93-28.15 21.81-30.08 19.7-32 15.43-32L15.43-32 9.68-32ZM33.6-25.33L38.05-25.33 38.05-9.18Q38.05-6.3 39.37-4.73 40.7-3.15 43.37-3.15L43.37-3.15Q45.32-3.15 47.05-4.08 48.77-5 50.22-6.65L50.22-6.65 50.22-25.33 54.67-25.33 54.67 0 52.02 0Q51.07 0 50.82-0.93L50.82-0.93 50.47-3.65Q48.82-1.83 46.77-0.71 44.72 0.4 42.07 0.4L42.07 0.4Q40 0.4 38.41-0.29 36.82-0.98 35.75-2.23 34.67-3.48 34.13-5.25 33.6-7.03 33.6-9.18L33.6-9.18 33.6-25.33ZM65.02 0L62.14 0 62.14-36.83 66.62-36.83 66.62-21.68Q68.19-23.5 70.23-24.61 72.27-25.73 74.89-25.73L74.89-25.73Q77.09-25.73 78.87-24.9 80.64-24.08 81.89-22.44 83.14-20.8 83.82-18.39 84.5-15.98 84.5-12.83L84.5-12.83Q84.5-10.03 83.75-7.61 83-5.2 81.58-3.44 80.17-1.68 78.13-0.66 76.09 0.35 73.55 0.35L73.55 0.35Q71.09 0.35 69.38-0.6 67.67-1.55 66.39-3.25L66.39-3.25 66.17-0.95Q65.97 0 65.02 0L65.02 0ZM73.44-22.18L73.44-22.18Q71.27-22.18 69.63-21.18 68-20.18 66.62-18.35L66.62-18.35 66.62-6.1Q67.82-4.45 69.28-3.78 70.75-3.1 72.55-3.1L72.55-3.1Q76.09-3.1 78-5.63 79.89-8.15 79.89-12.83L79.89-12.83Q79.89-15.3 79.46-17.07 79.02-18.85 78.19-19.99 77.37-21.13 76.17-21.65 74.97-22.18 73.44-22.18ZM90.44-36.83L94.89-36.83 94.89 0 90.44 0 90.44-36.83ZM103.24-25.33L107.69-25.33 107.69 0 103.24 0 103.24-25.33ZM108.69-33.27L108.69-33.27Q108.69-32.63 108.43-32.06 108.17-31.5 107.73-31.06 107.29-30.63 106.72-30.38 106.14-30.13 105.49-30.13L105.49-30.13Q104.84-30.13 104.28-30.38 103.72-30.63 103.28-31.06 102.84-31.5 102.59-32.06 102.34-32.63 102.34-33.27L102.34-33.27Q102.34-33.93 102.59-34.51 102.84-35.1 103.28-35.54 103.72-35.98 104.28-36.23 104.84-36.48 105.49-36.48L105.49-36.48Q106.14-36.48 106.72-36.23 107.29-35.98 107.73-35.54 108.17-35.1 108.43-34.51 108.69-33.93 108.69-33.27ZM133.99-22.43L132.81-20.83Q132.61-20.55 132.41-20.4 132.21-20.25 131.84-20.25L131.84-20.25Q131.46-20.25 131.03-20.56 130.59-20.88 129.91-21.25 129.24-21.63 128.28-21.94 127.31-22.25 125.91-22.25L125.91-22.25Q124.06-22.25 122.64-21.59 121.21-20.93 120.25-19.68 119.29-18.43 118.8-16.65 118.31-14.88 118.31-12.68L118.31-12.68Q118.31-10.38 118.84-8.59 119.36-6.8 120.31-5.59 121.26-4.38 122.63-3.74 123.99-3.1 125.69-3.1L125.69-3.1Q127.31-3.1 128.36-3.49 129.41-3.88 130.11-4.35 130.81-4.83 131.26-5.21 131.71-5.6 132.16-5.6L132.16-5.6Q132.74-5.6 133.01-5.18L133.01-5.18 134.26-3.55Q132.61-1.53 130.14-0.59 127.66 0.35 124.91 0.35L124.91 0.35Q122.54 0.35 120.5-0.53 118.46-1.4 116.96-3.06 115.46-4.73 114.6-7.15 113.74-9.58 113.74-12.68L113.74-12.68Q113.74-15.5 114.53-17.9 115.31-20.3 116.83-22.04 118.34-23.78 120.56-24.75 122.79-25.73 125.66-25.73L125.66-25.73Q128.31-25.73 130.36-24.86 132.41-24 133.99-22.43L133.99-22.43ZM161.91 0L149.23 0 149.23-35.83 160.66-35.83Q163.96-35.83 166.35-35.18 168.73-34.52 170.27-33.33 171.81-32.13 172.55-30.39 173.28-28.65 173.28-26.48L173.28-26.48Q173.28-25.15 172.87-23.93 172.46-22.7 171.62-21.65 170.78-20.6 169.52-19.78 168.26-18.95 166.56-18.43L166.56-18.43Q170.48-17.65 172.48-15.6 174.48-13.55 174.48-10.2L174.48-10.2Q174.48-7.93 173.65-6.05 172.81-4.17 171.2-2.83 169.58-1.48 167.25-0.74 164.91 0 161.91 0L161.91 0ZM161.81-16.32L154.08-16.32 154.08-3.85 161.83-3.85Q163.91-3.85 165.4-4.33 166.88-4.8 167.85-5.66 168.81-6.53 169.26-7.71 169.71-8.9 169.71-10.33L169.71-10.33Q169.71-13.1 167.75-14.71 165.78-16.32 161.81-16.32L161.81-16.32ZM154.08-32L154.08-19.78 160.48-19.78Q162.53-19.78 164.03-20.23 165.53-20.68 166.52-21.48 167.51-22.28 167.98-23.41 168.46-24.55 168.46-25.9L168.46-25.9Q168.46-29.05 166.56-30.53 164.66-32 160.66-32L160.66-32 154.08-32ZM180.28-25.33L184.73-25.33 184.73-9.18Q184.73-6.3 186.06-4.73 187.38-3.15 190.06-3.15L190.06-3.15Q192.01-3.15 193.73-4.08 195.46-5 196.91-6.65L196.91-6.65 196.91-25.33 201.36-25.33 201.36 0 198.71 0Q197.76 0 197.51-0.93L197.51-0.93 197.16-3.65Q195.51-1.83 193.46-0.71 191.41 0.4 188.76 0.4L188.76 0.4Q186.68 0.4 185.09-0.29 183.51-0.98 182.43-2.23 181.36-3.48 180.82-5.25 180.28-7.03 180.28-9.18L180.28-9.18 180.28-25.33ZM224.18-22.78L223.18-21.15Q222.88-20.6 222.25-20.6L222.25-20.6Q221.88-20.6 221.4-20.88 220.93-21.15 220.24-21.49 219.55-21.83 218.6-22.11 217.65-22.4 216.35-22.4L216.35-22.4Q215.23-22.4 214.33-22.11 213.43-21.83 212.79-21.33 212.15-20.83 211.82-20.16 211.48-19.5 211.48-18.73L211.48-18.73Q211.48-17.75 212.04-17.1 212.6-16.45 213.53-15.98 214.45-15.5 215.63-15.14 216.8-14.78 218.04-14.36 219.28-13.95 220.45-13.45 221.63-12.95 222.55-12.2 223.48-11.45 224.04-10.36 224.6-9.28 224.6-7.75L224.6-7.75Q224.6-6 223.98-4.51 223.35-3.03 222.13-1.94 220.9-0.85 219.13-0.23 217.35 0.4 215.03 0.4L215.03 0.4Q212.38 0.4 210.23-0.46 208.08-1.33 206.58-2.68L206.58-2.68 207.63-4.38Q207.83-4.7 208.1-4.88 208.38-5.05 208.83-5.05L208.83-5.05Q209.28-5.05 209.78-4.7 210.28-4.35 210.99-3.93 211.7-3.5 212.72-3.15 213.73-2.8 215.25-2.8L215.25-2.8Q216.55-2.8 217.53-3.14 218.5-3.48 219.15-4.05 219.8-4.63 220.12-5.38 220.43-6.13 220.43-6.98L220.43-6.98Q220.43-8.03 219.87-8.71 219.3-9.4 218.38-9.89 217.45-10.38 216.27-10.74 215.08-11.1 213.84-11.5 212.6-11.9 211.42-12.41 210.23-12.93 209.3-13.7 208.38-14.48 207.82-15.61 207.25-16.75 207.25-18.38L207.25-18.38Q207.25-19.83 207.85-21.16 208.45-22.5 209.6-23.51 210.75-24.53 212.43-25.13 214.1-25.73 216.25-25.73L216.25-25.73Q218.75-25.73 220.74-24.94 222.73-24.15 224.18-22.78L224.18-22.78ZM245.57-35.83L245.57-4.08 261.07-4.08 261.07 0 240.72 0 240.72-35.83 245.57-35.83ZM266.22-25.33L270.67-25.33 270.67 0 266.22 0 266.22-25.33ZM271.67-33.27L271.67-33.27Q271.67-32.63 271.41-32.06 271.15-31.5 270.71-31.06 270.27-30.63 269.7-30.38 269.12-30.13 268.47-30.13L268.47-30.13Q267.82-30.13 267.26-30.38 266.7-30.63 266.26-31.06 265.82-31.5 265.57-32.06 265.32-32.63 265.32-33.27L265.32-33.27Q265.32-33.93 265.57-34.51 265.82-35.1 266.26-35.54 266.7-35.98 267.26-36.23 267.82-36.48 268.47-36.48L268.47-36.48Q269.12-36.48 269.7-36.23 270.27-35.98 270.71-35.54 271.15-35.1 271.41-34.51 271.67-33.93 271.67-33.27ZM285.64 0L275.32-25.33 278.97-25.33Q279.49-25.33 279.84-25.05 280.19-24.78 280.34-24.4L280.34-24.4 286.77-8.1Q287.12-7.2 287.32-6.3 287.52-5.4 287.69-4.53L287.69-4.53Q287.89-5.4 288.12-6.3 288.34-7.2 288.69-8.1L288.69-8.1 295.19-24.4Q295.34-24.8 295.68-25.06 296.02-25.33 296.52-25.33L296.52-25.33 299.99-25.33 289.67 0 285.64 0ZM313.49-25.73L313.49-25.73Q315.77-25.73 317.69-24.96 319.62-24.2 321.02-22.76 322.42-21.33 323.2-19.21 323.99-17.1 323.99-14.4L323.99-14.4Q323.99-13.35 323.77-13 323.54-12.65 322.92-12.65L322.92-12.65 306.07-12.65Q306.12-10.25 306.72-8.47 307.32-6.7 308.37-5.51 309.42-4.33 310.87-3.74 312.32-3.15 314.12-3.15L314.12-3.15Q315.79-3.15 317-3.54 318.22-3.93 319.09-4.38 319.97-4.83 320.55-5.21 321.14-5.6 321.57-5.6L321.57-5.6Q322.12-5.6 322.42-5.18L322.42-5.18 323.67-3.55Q322.84-2.55 321.69-1.81 320.54-1.07 319.23-0.6 317.92-0.13 316.52 0.11 315.12 0.35 313.74 0.35L313.74 0.35Q311.12 0.35 308.9-0.54 306.69-1.43 305.08-3.14 303.47-4.85 302.57-7.38 301.67-9.9 301.67-13.18L301.67-13.18Q301.67-15.83 302.48-18.13 303.29-20.43 304.82-22.11 306.34-23.8 308.54-24.76 310.74-25.73 313.49-25.73ZM313.59-22.45L313.59-22.45Q310.37-22.45 308.52-20.59 306.67-18.73 306.22-15.43L306.22-15.43 319.99-15.43Q319.99-16.98 319.57-18.26 319.14-19.55 318.32-20.49 317.49-21.43 316.3-21.94 315.12-22.45 313.59-22.45ZM336.36-35.83L364.41-35.83 364.41-31.75 352.84-31.75 352.84 0 347.99 0 347.99-31.75 336.36-31.75 336.36-35.83ZM369.26 0L364.81 0 364.81-25.33 367.36-25.33Q368.08-25.33 368.36-25.05 368.63-24.78 368.73-24.1L368.73-24.1 369.03-20.15Q370.33-22.8 372.25-24.29 374.16-25.78 376.73-25.78L376.73-25.78Q377.78-25.78 378.63-25.54 379.48-25.3 380.21-24.88L380.21-24.88 379.63-21.55Q379.46-20.93 378.86-20.93L378.86-20.93Q378.51-20.93 377.78-21.16 377.06-21.4 375.76-21.4L375.76-21.4Q373.43-21.4 371.87-20.05 370.31-18.7 369.26-16.13L369.26-16.13 369.26 0ZM402.61-16.2L402.61 0 400.63 0Q399.98 0 399.58-0.2 399.18-0.4 399.06-1.05L399.06-1.05 398.56-3.4Q397.56-2.5 396.61-1.79 395.66-1.07 394.61-0.59 393.56-0.1 392.37 0.15 391.18 0.4 389.73 0.4L389.73 0.4Q388.26 0.4 386.97-0.01 385.68-0.43 384.73-1.25 383.78-2.08 383.22-3.34 382.66-4.6 382.66-6.33L382.66-6.33Q382.66-7.83 383.48-9.21 384.31-10.6 386.14-11.68 387.98-12.75 390.96-13.44 393.93-14.13 398.23-14.23L398.23-14.23 398.23-16.2Q398.23-19.15 396.97-20.66 395.71-22.18 393.23-22.18L393.23-22.18Q391.61-22.18 390.49-21.76 389.38-21.35 388.57-20.84 387.76-20.33 387.17-19.91 386.58-19.5 386.01-19.5L386.01-19.5Q385.56-19.5 385.22-19.74 384.88-19.98 384.68-20.33L384.68-20.33 383.88-21.75Q385.98-23.78 388.41-24.78 390.83-25.78 393.78-25.78L393.78-25.78Q395.91-25.78 397.56-25.08 399.21-24.38 400.33-23.13 401.46-21.88 402.03-20.1 402.61-18.32 402.61-16.2L402.61-16.2ZM391.06-2.73L391.06-2.73Q392.23-2.73 393.21-2.96 394.18-3.2 395.04-3.64 395.91-4.08 396.69-4.7 397.48-5.33 398.23-6.13L398.23-6.13 398.23-11.4Q395.16-11.3 393.01-10.91 390.86-10.53 389.51-9.9 388.16-9.28 387.54-8.43 386.93-7.58 386.93-6.53L386.93-6.53Q386.93-5.53 387.26-4.8 387.58-4.08 388.13-3.61 388.68-3.15 389.43-2.94 390.18-2.73 391.06-2.73ZM427.8-22.43L426.63-20.83Q426.43-20.55 426.23-20.4 426.03-20.25 425.65-20.25L425.65-20.25Q425.28-20.25 424.84-20.56 424.4-20.88 423.73-21.25 423.05-21.63 422.09-21.94 421.13-22.25 419.73-22.25L419.73-22.25Q417.88-22.25 416.45-21.59 415.03-20.93 414.07-19.68 413.1-18.43 412.62-16.65 412.13-14.88 412.13-12.68L412.13-12.68Q412.13-10.38 412.65-8.59 413.18-6.8 414.13-5.59 415.08-4.38 416.44-3.74 417.8-3.1 419.5-3.1L419.5-3.1Q421.13-3.1 422.18-3.49 423.23-3.88 423.93-4.35 424.63-4.83 425.08-5.21 425.53-5.6 425.98-5.6L425.98-5.6Q426.55-5.6 426.83-5.18L426.83-5.18 428.08-3.55Q426.43-1.53 423.95-0.59 421.48 0.35 418.73 0.35L418.73 0.35Q416.35 0.35 414.32-0.53 412.28-1.4 410.78-3.06 409.28-4.73 408.42-7.15 407.55-9.58 407.55-12.68L407.55-12.68Q407.55-15.5 408.34-17.9 409.13-20.3 410.64-22.04 412.15-23.78 414.38-24.75 416.6-25.73 419.48-25.73L419.48-25.73Q422.13-25.73 424.18-24.86 426.23-24 427.8-22.43L427.8-22.43ZM432.85-36.83L437.33-36.83 437.33-15.15 438.48-15.15Q438.98-15.15 439.3-15.29 439.63-15.43 440.03-15.85L440.03-15.85 448.03-24.43Q448.4-24.83 448.78-25.08 449.15-25.33 449.78-25.33L449.78-25.33 453.83-25.33 444.5-15.4Q444.15-14.98 443.81-14.65 443.48-14.33 443.05-14.08L443.05-14.08Q443.5-13.78 443.86-13.39 444.23-13 444.55-12.5L444.55-12.5 454.45 0 450.45 0Q449.9 0 449.51-0.21 449.13-0.43 448.78-0.88L448.78-0.88 440.45-11.25Q440.08-11.78 439.7-11.94 439.33-12.1 438.58-12.1L438.58-12.1 437.33-12.1 437.33 0 432.85 0 432.85-36.83ZM459.4-25.33L463.85-25.33 463.85 0 459.4 0 459.4-25.33ZM464.85-33.27L464.85-33.27Q464.85-32.63 464.59-32.06 464.32-31.5 463.89-31.06 463.45-30.63 462.87-30.38 462.3-30.13 461.65-30.13L461.65-30.13Q461-30.13 460.44-30.38 459.87-30.63 459.44-31.06 459-31.5 458.75-32.06 458.5-32.63 458.5-33.27L458.5-33.27Q458.5-33.93 458.75-34.51 459-35.1 459.44-35.54 459.87-35.98 460.44-36.23 461-36.48 461.65-36.48L461.65-36.48Q462.3-36.48 462.87-36.23 463.45-35.98 463.89-35.54 464.32-35.1 464.59-34.51 464.85-33.93 464.85-33.27ZM476.15 0L471.7 0 471.7-25.33 474.35-25.33Q475.3-25.33 475.55-24.4L475.55-24.4 475.9-21.65Q477.55-23.48 479.58-24.6 481.62-25.73 484.3-25.73L484.3-25.73Q486.37-25.73 487.96-25.04 489.55-24.35 490.61-23.09 491.67-21.83 492.22-20.05 492.77-18.28 492.77-16.13L492.77-16.13 492.77 0 488.32 0 488.32-16.13Q488.32-19 487.01-20.59 485.7-22.18 483-22.18L483-22.18Q481.02-22.18 479.31-21.23 477.6-20.28 476.15-18.65L476.15-18.65 476.15 0ZM508.02-25.75L508.02-25.75Q509.67-25.75 511.11-25.39 512.54-25.03 513.72-24.33L513.72-24.33 520.59-24.33 520.59-22.68Q520.59-21.85 519.54-21.63L519.54-21.63 516.67-21.23Q517.52-19.6 517.52-17.6L517.52-17.6Q517.52-15.75 516.81-14.24 516.09-12.73 514.83-11.65 513.57-10.58 511.83-10 510.09-9.43 508.02-9.43L508.02-9.43Q506.24-9.43 504.67-9.85L504.67-9.85Q503.87-9.35 503.46-8.78 503.04-8.2 503.04-7.65L503.04-7.65Q503.04-6.75 503.77-6.29 504.49-5.83 505.69-5.63 506.89-5.43 508.42-5.38 509.94-5.33 511.53-5.21 513.12-5.1 514.64-4.83 516.17-4.55 517.37-3.93 518.57-3.3 519.29-2.2 520.02-1.1 520.02 0.65L520.02 0.65Q520.02 2.27 519.21 3.8 518.39 5.33 516.87 6.51 515.34 7.7 513.14 8.41 510.94 9.13 508.17 9.13L508.17 9.13Q505.39 9.13 503.31 8.58 501.22 8.03 499.84 7.1 498.47 6.18 497.78 4.96 497.09 3.75 497.09 2.43L497.09 2.43Q497.09 0.55 498.28-0.76 499.47-2.08 501.54-2.85L501.54-2.85Q500.47-3.35 499.83-4.19 499.19-5.03 499.19-6.43L499.19-6.43Q499.19-6.98 499.39-7.56 499.59-8.15 500.01-8.72 500.42-9.3 501.02-9.83 501.62-10.35 502.42-10.75L502.42-10.75Q500.54-11.8 499.48-13.54 498.42-15.28 498.42-17.6L498.42-17.6Q498.42-19.45 499.13-20.96 499.84-22.48 501.12-23.54 502.39-24.6 504.16-25.18 505.92-25.75 508.02-25.75ZM515.92 1.38L515.92 1.38Q515.92 0.43 515.39-0.15 514.87-0.73 513.97-1.04 513.07-1.35 511.89-1.5 510.72-1.65 509.42-1.71 508.12-1.78 506.77-1.85 505.42-1.93 504.19-2.13L504.19-2.13Q502.77-1.45 501.88-0.48 500.99 0.5 500.99 1.85L500.99 1.85Q500.99 2.7 501.43 3.44 501.87 4.17 502.77 4.71 503.67 5.25 505.03 5.56 506.39 5.88 508.24 5.88L508.24 5.88Q510.04 5.88 511.47 5.55 512.89 5.23 513.88 4.63 514.87 4.03 515.39 3.2 515.92 2.38 515.92 1.38ZM508.02-12.38L508.02-12.38Q509.37-12.38 510.41-12.75 511.44-13.13 512.14-13.8 512.84-14.48 513.19-15.41 513.54-16.35 513.54-17.48L513.54-17.48Q513.54-19.8 512.13-21.18 510.72-22.55 508.02-22.55L508.02-22.55Q505.34-22.55 503.93-21.18 502.52-19.8 502.52-17.48L502.52-17.48Q502.52-16.35 502.88-15.41 503.24-14.48 503.94-13.8 504.64-13.13 505.67-12.75 506.69-12.38 508.02-12.38ZM535.39-35.83L557.46-35.83 557.46-31.88 540.26-31.88 540.26-19.35 554.96-19.35 554.96-15.4 540.26-15.4 540.26 0 535.39 0 535.39-35.83ZM571.48-25.73L571.48-25.73Q574.26-25.73 576.5-24.8 578.73-23.88 580.3-22.18 581.86-20.48 582.7-18.06 583.53-15.65 583.53-12.68L583.53-12.68Q583.53-9.68 582.7-7.28 581.86-4.88 580.3-3.18 578.73-1.48 576.5-0.56 574.26 0.35 571.48 0.35L571.48 0.35Q568.71 0.35 566.47-0.56 564.23-1.48 562.66-3.18 561.08-4.88 560.23-7.28 559.38-9.68 559.38-12.68L559.38-12.68Q559.38-15.65 560.23-18.06 561.08-20.48 562.66-22.18 564.23-23.88 566.47-24.8 568.71-25.73 571.48-25.73ZM571.48-3.13L571.48-3.13Q575.23-3.13 577.08-5.64 578.93-8.15 578.93-12.65L578.93-12.65Q578.93-17.18 577.08-19.7 575.23-22.23 571.48-22.23L571.48-22.23Q569.58-22.23 568.18-21.58 566.78-20.93 565.85-19.7 564.91-18.48 564.45-16.69 563.98-14.9 563.98-12.65L563.98-12.65Q563.98-10.4 564.45-8.63 564.91-6.85 565.85-5.64 566.78-4.42 568.18-3.78 569.58-3.13 571.48-3.13ZM593.48 0L589.03 0 589.03-25.33 591.58-25.33Q592.31-25.33 592.58-25.05 592.86-24.78 592.96-24.1L592.96-24.1 593.26-20.15Q594.56-22.8 596.47-24.29 598.38-25.78 600.96-25.78L600.96-25.78Q602.01-25.78 602.86-25.54 603.71-25.3 604.43-24.88L604.43-24.88 603.86-21.55Q603.68-20.93 603.08-20.93L603.08-20.93Q602.73-20.93 602.01-21.16 601.28-21.4 599.98-21.4L599.98-21.4Q597.66-21.4 596.09-20.05 594.53-18.7 593.48-16.13L593.48-16.13 593.48 0ZM639.05-32.52L637.88-30.23Q637.65-29.85 637.4-29.66 637.15-29.48 636.75-29.48L636.75-29.48Q636.33-29.48 635.76-29.9 635.2-30.33 634.34-30.84 633.48-31.35 632.26-31.78 631.05-32.2 629.33-32.2L629.33-32.2Q627.7-32.2 626.45-31.76 625.2-31.33 624.36-30.58 623.53-29.83 623.1-28.81 622.68-27.8 622.68-26.63L622.68-26.63Q622.68-25.13 623.41-24.14 624.15-23.15 625.36-22.45 626.58-21.75 628.11-21.24 629.65-20.73 631.26-20.18 632.88-19.63 634.41-18.94 635.95-18.25 637.16-17.2 638.38-16.15 639.11-14.63 639.85-13.1 639.85-10.88L639.85-10.88Q639.85-8.53 639.05-6.46 638.25-4.4 636.71-2.88 635.18-1.35 632.94-0.48 630.7 0.4 627.85 0.4L627.85 0.4Q624.38 0.4 621.51-0.86 618.65-2.13 616.63-4.28L616.63-4.28 618.03-6.58Q618.23-6.85 618.51-7.04 618.8-7.23 619.15-7.23L619.15-7.23Q619.68-7.23 620.35-6.66 621.03-6.1 622.04-5.43 623.05-4.75 624.49-4.19 625.93-3.63 628-3.63L628-3.63Q629.73-3.63 631.08-4.1 632.43-4.58 633.36-5.44 634.3-6.3 634.8-7.5 635.3-8.7 635.3-10.18L635.3-10.18Q635.3-11.8 634.56-12.84 633.83-13.88 632.63-14.58 631.43-15.28 629.89-15.76 628.35-16.25 626.74-16.76 625.13-17.28 623.59-17.95 622.05-18.63 620.85-19.7 619.65-20.78 618.91-22.39 618.18-24 618.18-26.38L618.18-26.38Q618.18-28.28 618.91-30.05 619.65-31.83 621.05-33.2 622.45-34.58 624.51-35.4 626.58-36.23 629.25-36.23L629.25-36.23Q632.25-36.23 634.73-35.27 637.2-34.33 639.05-32.52L639.05-32.52ZM649.77 0L645.32 0 645.32-25.33 647.97-25.33Q648.92-25.33 649.17-24.4L649.17-24.4 649.5-21.8Q650.9-23.53 652.64-24.63 654.37-25.73 656.67-25.73L656.67-25.73Q659.25-25.73 660.84-24.3 662.42-22.88 663.12-20.45L663.12-20.45Q663.65-21.83 664.51-22.83 665.37-23.83 666.45-24.48 667.52-25.13 668.74-25.43 669.95-25.73 671.2-25.73L671.2-25.73Q673.2-25.73 674.76-25.09 676.32-24.45 677.41-23.23 678.5-22 679.07-20.21 679.65-18.43 679.65-16.13L679.65-16.13 679.65 0 675.2 0 675.2-16.13Q675.2-19.1 673.9-20.64 672.6-22.18 670.12-22.18L670.12-22.18Q669.02-22.18 668.04-21.79 667.05-21.4 666.3-20.65 665.55-19.9 665.11-18.76 664.67-17.63 664.67-16.13L664.67-16.13 664.67 0 660.22 0 660.22-16.13Q660.22-19.18 659-20.68 657.77-22.18 655.42-22.18L655.42-22.18Q653.77-22.18 652.36-21.29 650.95-20.4 649.77-18.88L649.77-18.88 649.77 0ZM704.97-16.2L704.97 0 703 0Q702.35 0 701.95-0.2 701.55-0.4 701.42-1.05L701.42-1.05 700.92-3.4Q699.92-2.5 698.97-1.79 698.02-1.07 696.97-0.59 695.92-0.1 694.73 0.15 693.55 0.4 692.1 0.4L692.1 0.4Q690.62 0.4 689.33-0.01 688.05-0.43 687.1-1.25 686.15-2.08 685.58-3.34 685.02-4.6 685.02-6.33L685.02-6.33Q685.02-7.83 685.85-9.21 686.67-10.6 688.51-11.68 690.35-12.75 693.32-13.44 696.3-14.13 700.6-14.23L700.6-14.23 700.6-16.2Q700.6-19.15 699.33-20.66 698.07-22.18 695.6-22.18L695.6-22.18Q693.97-22.18 692.86-21.76 691.75-21.35 690.93-20.84 690.12-20.33 689.53-19.91 688.95-19.5 688.37-19.5L688.37-19.5Q687.92-19.5 687.58-19.74 687.25-19.98 687.05-20.33L687.05-20.33 686.25-21.75Q688.35-23.78 690.77-24.78 693.2-25.78 696.15-25.78L696.15-25.78Q698.27-25.78 699.92-25.08 701.57-24.38 702.7-23.13 703.82-21.88 704.4-20.1 704.97-18.32 704.97-16.2L704.97-16.2ZM693.42-2.73L693.42-2.73Q694.6-2.73 695.57-2.96 696.55-3.2 697.41-3.64 698.27-4.08 699.06-4.7 699.85-5.33 700.6-6.13L700.6-6.13 700.6-11.4Q697.52-11.3 695.37-10.91 693.22-10.53 691.87-9.9 690.52-9.28 689.91-8.43 689.3-7.58 689.3-6.53L689.3-6.53Q689.3-5.53 689.62-4.8 689.95-4.08 690.5-3.61 691.05-3.15 691.8-2.94 692.55-2.73 693.42-2.73ZM716.17 0L711.72 0 711.72-25.33 714.27-25.33Q714.99-25.33 715.27-25.05 715.54-24.78 715.64-24.1L715.64-24.1 715.94-20.15Q717.24-22.8 719.16-24.29 721.07-25.78 723.64-25.78L723.64-25.78Q724.69-25.78 725.54-25.54 726.39-25.3 727.12-24.88L727.12-24.88 726.54-21.55Q726.37-20.93 725.77-20.93L725.77-20.93Q725.42-20.93 724.69-21.16 723.97-21.4 722.67-21.4L722.67-21.4Q720.34-21.4 718.78-20.05 717.22-18.7 716.17-16.13L716.17-16.13 716.17 0ZM739.54 0.4L739.54 0.4Q736.54 0.4 734.93-1.28 733.32-2.95 733.32-6.1L733.32-6.1 733.32-21.6 730.27-21.6Q729.87-21.6 729.59-21.84 729.32-22.08 729.32-22.58L729.32-22.58 729.32-24.35 733.47-24.88 734.49-32.7Q734.54-33.08 734.82-33.31 735.09-33.55 735.52-33.55L735.52-33.55 737.77-33.55 737.77-24.83 745.02-24.83 745.02-21.6 737.77-21.6 737.77-6.4Q737.77-4.8 738.54-4.03 739.32-3.25 740.54-3.25L740.54-3.25Q741.24-3.25 741.75-3.44 742.27-3.63 742.64-3.85 743.02-4.08 743.28-4.26 743.54-4.45 743.74-4.45L743.74-4.45Q744.09-4.45 744.37-4.03L744.37-4.03 745.67-1.9Q744.52-0.83 742.89-0.21 741.27 0.4 739.54 0.4ZM786.11-7.4L786.11-7.4Q786.51-7.4 786.84-7.08L786.84-7.08 788.74-5Q786.54-2.45 783.4-1.03 780.26 0.4 775.84 0.4L775.84 0.4Q771.96 0.4 768.81-0.94 765.66-2.27 763.44-4.69 761.21-7.1 759.99-10.48 758.76-13.85 758.76-17.9L758.76-17.9Q758.76-21.95 760.07-25.33 761.39-28.7 763.76-31.13 766.14-33.55 769.45-34.89 772.76-36.23 776.76-36.23L776.76-36.23Q780.71-36.23 783.57-35 786.44-33.77 788.66-31.68L788.66-31.68 787.09-29.45Q786.91-29.2 786.69-29.04 786.46-28.88 786.04-28.88L786.04-28.88Q785.71-28.88 785.35-29.11 784.99-29.35 784.49-29.7 783.99-30.05 783.31-30.45 782.64-30.85 781.71-31.2 780.79-31.55 779.56-31.79 778.34-32.02 776.74-32.02L776.74-32.02Q773.86-32.02 771.47-31.04 769.09-30.05 767.36-28.23 765.64-26.4 764.67-23.78 763.71-21.15 763.71-17.9L763.71-17.9Q763.71-14.55 764.67-11.93 765.64-9.3 767.3-7.49 768.96-5.68 771.24-4.73 773.51-3.78 776.14-3.78L776.14-3.78Q777.74-3.78 779.01-3.96 780.29-4.15 781.37-4.55 782.46-4.95 783.4-5.56 784.34-6.18 785.29-7.03L785.29-7.03Q785.71-7.4 786.11-7.4ZM794.91-25.33L799.36-25.33 799.36 0 794.91 0 794.91-25.33ZM800.36-33.27L800.36-33.27Q800.36-32.63 800.1-32.06 799.83-31.5 799.4-31.06 798.96-30.63 798.38-30.38 797.81-30.13 797.16-30.13L797.16-30.13Q796.51-30.13 795.95-30.38 795.38-30.63 794.95-31.06 794.51-31.5 794.26-32.06 794.01-32.63 794.01-33.27L794.01-33.27Q794.01-33.93 794.26-34.51 794.51-35.1 794.95-35.54 795.38-35.98 795.95-36.23 796.51-36.48 797.16-36.48L797.16-36.48Q797.81-36.48 798.38-36.23 798.96-35.98 799.4-35.54 799.83-35.1 800.1-34.51 800.36-33.93 800.36-33.27ZM814.88 0.4L814.88 0.4Q811.88 0.4 810.27-1.28 808.66-2.95 808.66-6.1L808.66-6.1 808.66-21.6 805.61-21.6Q805.21-21.6 804.93-21.84 804.66-22.08 804.66-22.58L804.66-22.58 804.66-24.35 808.81-24.88 809.83-32.7Q809.88-33.08 810.16-33.31 810.43-33.55 810.86-33.55L810.86-33.55 813.11-33.55 813.11-24.83 820.36-24.83 820.36-21.6 813.11-21.6 813.11-6.4Q813.11-4.8 813.88-4.03 814.66-3.25 815.88-3.25L815.88-3.25Q816.58-3.25 817.09-3.44 817.61-3.63 817.98-3.85 818.36-4.08 818.62-4.26 818.88-4.45 819.08-4.45L819.08-4.45Q819.43-4.45 819.71-4.03L819.71-4.03 821.01-1.9Q819.86-0.83 818.23-0.21 816.61 0.4 814.88 0.4ZM847.4-25.33L833.28 7.48Q833.05 7.98 832.72 8.28 832.38 8.58 831.68 8.58L831.68 8.58 828.38 8.58 833-1.48 822.55-25.33 826.4-25.33Q826.98-25.33 827.3-25.04 827.63-24.75 827.78-24.4L827.78-24.4 834.55-8.45Q834.78-7.9 834.94-7.35 835.1-6.8 835.23-6.23L835.23-6.23Q835.4-6.8 835.58-7.35 835.75-7.9 835.98-8.47L835.98-8.47 842.55-24.4Q842.7-24.8 843.07-25.06 843.43-25.33 843.85-25.33L843.85-25.33 847.4-25.33Z" opacity="1" transform="matrix(1,0,0,1,0,0)" fill="#ffffff" class="slogan-text-1" data-fill-palette-color="secondary" id="text-1"></path></svg></g></svg></g></svg></g></svg></g><g transform="matrix(1,0,0,1,141.53149356982627,0)"><svg viewBox="0 0 112.45701286034745 112.45701286034746" height="112.45701286034746" width="112.45701286034745"><g><svg></svg></g><g id="icon-0"><svg viewBox="0 0 112.45701286034745 112.45701286034746" height="112.45701286034746" width="112.45701286034745"><g><path transform="scale(1.12457,1.12457)" d="M30 100c-16.569 0-30-13.431-30-30v-40c0-16.569 13.431-30 30-30h40c16.569 0 30 13.431 30 30v40c0 16.569-13.431 30-30 30z" fill="#ffffff" fill-rule="nonzero" stroke="none" stroke-width="1" stroke-linecap="butt" stroke-linejoin="miter" stroke-miterlimit="10" stroke-dasharray="" stroke-dashoffset="0" font-family="none" font-weight="none" font-size="none" text-anchor="none" style="mix-blend-mode: normal" data-fill-palette-color="accent"></path></g><g transform="matrix(1,0,0,1,33.56138977550994,22.491402572069497)"><svg viewBox="0 0 45.334233309327566 67.47420771620847" height="67.47420771620847" width="45.334233309327566"><g><svg xmlns="http://www.w3.org/2000/svg" xmlns:xlink="http://www.w3.org/1999/xlink" version="1.1" x="0" y="0" viewBox="21 1 86 128" style="enable-background:new 0 0 128 128;" xml:space="preserve" width="45.334233309327566" height="67.47420771620847" class="icon-cg-0" data-fill-palette-color="quaternary" id="cg-0"><path d="M71.5 109.9c-0.1 0.4-0.2 0.8-0.3 1.2 9.8 0.8 16.9 3.3 16.9 6.3 0 3.6-10.8 6.6-24.1 6.6s-24.1-2.9-24.1-6.6c0-2.9 7-5.4 16.7-6.2-0.1-0.4-0.2-0.8-0.3-1.2-11.9 0.9-20.6 3.9-20.6 7.4 0 4.3 12.7 7.7 28.3 7.7s28.3-3.5 28.3-7.7C92.3 113.8 83.5 110.8 71.5 109.9z" fill="#096a2e" data-fill-palette-color="quaternary"></path><path d="M72.7 105.8c-0.1 0.2-0.1 0.4-0.2 0.6 18.5 1.1 32.4 5.5 32.4 10.9 0 6.1-18.3 11.1-40.9 11.1s-40.9-5-40.9-11.1c0-5.3 13.8-9.8 32.2-10.9-0.1-0.2-0.1-0.4-0.2-0.6C35.7 107 21 111.7 21 117.3c0 6.5 19.3 11.7 43 11.7s43-5.3 43-11.7C107 111.7 92.3 106.9 72.7 105.8z" fill="#096a2e" data-fill-palette-color="quaternary"></path><path d="M63.8 1C43.4 1 26.9 17.4 26.9 37.6c0 12 7.5 22.9 14.8 33.4 2.8 4 5.4 7.7 7.6 11.6 8.1 14 11.1 26.3 12 31.3-5.7 0.3-10 1.7-10 3.4 0 1.9 5.7 3.5 12.7 3.5s12.7-1.5 12.7-3.5c0-1.7-4.5-3.1-10.4-3.4 1.1-5.1 4.4-17.4 11.9-31.4 2.3-4.4 5.4-8.8 8.4-13.1 6.9-10 14-20.3 14-31.8C100.6 17.4 84.1 1 63.8 1zM83.1 67.1c-3 4.4-6.1 8.9-8.6 13.5-5.5 10.2-8.8 19.4-10.6 25.9-1.8-6.5-5-15.7-11-25.9-2.3-4-5.1-8-7.8-11.9-6.9-10-14.1-20.3-14.1-31 0-17.9 14.6-32.4 32.6-32.4s32.6 14.5 32.6 32.4C96.4 47.8 89.6 57.6 83.1 67.1z" fill="#096a2e" data-fill-palette-color="quaternary"></path><path d="M63.8 52.2c-8.9 0-16.2-7.2-16.2-16.1s7.3-16.1 16.2-16.1C72.7 19.9 80 27.2 80 36S72.7 52.2 63.8 52.2zM63.8 23.9c-6.7 0-12.2 5.4-12.2 12.1S57 48.2 63.8 48.2 76 42.7 76 36 70.5 23.9 63.8 23.9z" fill="#096a2e" data-fill-palette-color="quaternary"></path></svg></g></svg></g></svg></g></svg></g><g></g></svg></g><defs></defs></svg><rect width="395.52" height="206.82522382629804" fill="none" stroke="none" visibility="hidden"></rect></g></svg></g></svg>